<svg width="168" height="54" viewBox="0 0 168 54" fill="none" xmlns="http://www.w3.org/2000/svg">
<mask id="path-1-inside-1" fill="white">
<path fill-rule="evenodd" clip-rule="evenodd" d="M5 0C2.23858 0 0 2.23858 0 5V44C0 46.7614 2.23858 49 5 49H79.3812L84 54L88.6188 49H163C165.761 49 168 46.7614 168 44V5C168 2.23858 165.761 0 163 0H5Z"/>
</mask>
<path fill-rule="evenodd" clip-rule="evenodd" d="M5 0C2.23858 0 0 2.23858 0 5V44C0 46.7614 2.23858 49 5 49H79.3812L84 54L88.6188 49H163C165.761 49 168 46.7614 168 44V5C168 2.23858 165.761 0 163 0H5Z" fill="white"/>
<path d="M79.3812 49L80.1158 48.3214L79.8188 48H79.3812V49ZM84 54L83.2654 54.6786L84 55.4737L84.7346 54.6786L84 54ZM88.6188 49V48H88.1812L87.8843 48.3214L88.6188 49ZM1 5C1 2.79086 2.79086 1 5 1V-1C1.68629 -1 -1 1.68629 -1 5H1ZM1 44V5H-1V44H1ZM5 48C2.79086 48 1 46.2091 1 44H-1C-1 47.3137 1.68629 50 5 50V48ZM79.3812 48H5V50H79.3812V48ZM78.6467 49.6786L83.2654 54.6786L84.7346 53.3214L80.1158 48.3214L78.6467 49.6786ZM84.7346 54.6786L89.3534 49.6786L87.8843 48.3214L83.2654 53.3214L84.7346 54.6786ZM163 48H88.6188V50H163V48ZM167 44C167 46.2091 165.209 48 163 48V50C166.314 50 169 47.3137 169 44H167ZM167 5V44H169V5H167ZM163 1C165.209 1 167 2.79086 167 5H169C169 1.68629 166.314 -1 163 -1V1ZM5 1H163V-1H5V1Z" fill="#E4E5E6" mask="url(#path-1-inside-1)"/>
</svg>
