<svg id="Layer_1" height="512" viewBox="0 0 128 128" width="512" xmlns="http://www.w3.org/2000/svg" data-name="Layer 1"><path d="m115 28.75a1.75 1.75 0 0 0 1.75-1.75v-6.367a1.744 1.744 0 0 0 -1.536-1.729c-.009 0-.017-.011-.026-.012l-70.772-7.632a1.723 1.723 0 0 0 -.187-.01h-4.9a1.749 1.749 0 0 0 -.487.069l-26.329 7.633c-.008 0-.014.012-.022.015a1.744 1.744 0 0 0 -1.241 1.666v6.367a1.75 1.75 0 0 0 1.75 1.75h23.858l-.251 5.5h-1.829a1.75 1.75 0 0 0 -1.749 1.684l-2.651 69.816h-3.35a1.75 1.75 0 0 0 -1.75 1.75v5.75h-12.278a1.75 1.75 0 0 0 0 3.5h102a1.75 1.75 0 0 0 0-3.5h-4.114v-5.259a1.75 1.75 0 0 0 -1.75-1.75h-9.15v-5.258a1.75 1.75 0 0 0 -1.75-1.75h-9.15v-5.258a1.75 1.75 0 0 0 -1.75-1.75h-21.8a1.75 1.75 0 0 0 -1.75 1.75v7.009a1.75 1.75 0 0 0 1.75 1.75h9.15v3.508h-9.15a1.75 1.75 0 0 0 -1.75 1.75v5.259h-5.508v-5.751a1.75 1.75 0 0 0 -1.75-1.75h-3.349l-2.652-69.816a1.75 1.75 0 0 0 -1.749-1.684h-1.828l-.251-5.5h40.718v27.833h-2.563a1.75 1.75 0 0 0 -1.729 1.478l-1 6.334a1.749 1.749 0 0 0 .228 1.173l2 3.333a1.751 1.751 0 0 0 1.5.85h1.563v2.749a1.75 1.75 0 0 0 1.75 1.75.882.882 0 1 1 -.732 1.374 1.75 1.75 0 1 0 -2.9 1.959 4.381 4.381 0 1 0 5.383-6.463v-1.37h1.563a1.751 1.751 0 0 0 1.5-.85l2-3.333a1.749 1.749 0 0 0 .228-1.173l-1-6.334a1.75 1.75 0 0 0 -1.729-1.478h-2.562v-27.832zm-22.349 35.562-1.163 1.938h-4.642l-1.163-1.938.667-4.229h5.635zm-55.342-45.429h-11.988l12.149-3.522zm3.658-4.133h1.638l.155 4.133h-1.96zm5.282 4.133-.179-3.924 36.383 3.924zm-31.5 3.5h98.5v2.867h-98.499zm32.531 20.3-2.472-1.746 2.343-1.655zm-8.54-1.746-2.466 1.741.129-3.392zm3.034 2.143 4.653 3.286-4.653 4.5-4.654-4.5zm-2.516 10.22-3.515 3.4.249-6.556zm5.213 27.9 4.139-3.53.278 7.307zm3.729 7.794-6.425 6.384-6.425-6.384 6.425-5.487zm-6.424-19.469 5.693 4.516-5.693 4.859-5.693-4.862zm-6.547.726.218-5.746 3.513 2.786zm9.363-2.96 3.518-2.791.219 5.755zm-2.816-2.234-5.293-4.2 5.293-5.118 5.294 5.118zm-2.695 16.143-4.41 3.767.277-7.3zm.212 16.64-5.312 5.278.386-10.171zm2.483 2.467 5.474 5.439h-10.95zm2.483-2.467 4.932-4.9.387 10.184zm3.555-41.136-3.52-3.4 3.271-3.163zm-6.039-17.904-1.485-1.05h2.97zm65.61 74.451h-18.3v-3.509h18.3zm-40.1-17.525h18.3v3.509h-18.3zm10.9 7.009h18.3v3.508h-18.3zm-10.9 7.008h18.3v3.509h-18.3zm-12.507 3.507h-26v-4h26zm-11.331-79h-3.337l.251-5.5h2.839z"/></svg>