<svg width="53" height="67" viewBox="0 0 53 67" fill="none" xmlns="http://www.w3.org/2000/svg">
<path d="M53 62C53 64.7614 50.7614 67 48 67H5C2.23858 67 0 64.7614 0 62V5C0 2.23858 2.23858 0 5 0H34.9803C36.373 0 37.7025 0.580828 38.6488 1.60261L51.6685 15.6612C52.5245 16.5855 53 17.7988 53 19.0586V62Z" fill="#3980D9"/>
<path d="M16.404 44.2C17.272 44.2 18.0233 44.3447 18.658 44.634C19.302 44.9233 19.7967 45.334 20.142 45.866C20.4873 46.398 20.66 47.028 20.66 47.756C20.66 48.4747 20.4873 49.1047 20.142 49.646C19.7967 50.178 19.302 50.5887 18.658 50.878C18.0233 51.158 17.272 51.298 16.404 51.298H14.43V54H12.162V44.2H16.404ZM16.278 49.45C16.9593 49.45 17.4773 49.3053 17.832 49.016C18.1867 48.7173 18.364 48.2973 18.364 47.756C18.364 47.2053 18.1867 46.7853 17.832 46.496C17.4773 46.1973 16.9593 46.048 16.278 46.048H14.43V49.45H16.278ZM22.2792 44.2H26.7312C27.7952 44.2 28.7332 44.4053 29.5452 44.816C30.3665 45.2173 31.0012 45.7867 31.4492 46.524C31.9065 47.2613 32.1352 48.12 32.1352 49.1C32.1352 50.08 31.9065 50.9387 31.4492 51.676C31.0012 52.4133 30.3665 52.9873 29.5452 53.398C28.7332 53.7993 27.7952 54 26.7312 54H22.2792V44.2ZM26.6192 52.138C27.5992 52.138 28.3785 51.8673 28.9572 51.326C29.5452 50.7753 29.8392 50.0333 29.8392 49.1C29.8392 48.1667 29.5452 47.4293 28.9572 46.888C28.3785 46.3373 27.5992 46.062 26.6192 46.062H24.5472V52.138H26.6192ZM36.1136 46.02V48.61H40.6496V50.43H36.1136V54H33.8456V44.2H41.2516V46.02H36.1136Z" fill="white"/>
</svg>
