<svg width="1440" height="679" viewBox="0 0 1440 679" fill="none" xmlns="http://www.w3.org/2000/svg">
<mask id="mask0" mask-type="alpha" maskUnits="userSpaceOnUse" x="0" y="0" width="1440" height="679">
<rect width="1440" height="679" fill="#F9F9F9"/>
</mask>
<g mask="url(#mask0)">
<g opacity="0.05">
<path fill-rule="evenodd" clip-rule="evenodd" d="M922.507 748.487C936.533 754.657 951.034 759.767 965.878 763.772C996.435 772.801 1028.24 777.283 1060.19 777.064C1090.18 777.079 1120.04 773.28 1149 765.766C1139.54 761.406 1130.73 755.816 1122.84 749.151C1110.56 739.733 1099.87 728.522 1091.17 715.922C1083.05 705.251 1076.34 693.642 1071.21 681.364C1065.64 669.218 1061.48 656.514 1058.82 643.483C1056.08 630.131 1054.69 616.554 1054.69 602.943C1054.69 572.09 1063.24 541.799 1079.47 515.218L1085.66 505.249C1091.73 497.056 1098.65 489.485 1106.32 482.653C1099.8 483.173 1093.34 484.286 1087.04 485.976L1069.83 489.964H1069.14C1046.48 496.96 1025.27 507.758 1006.5 521.864C987.216 536.482 970.483 553.982 956.929 573.701C930.991 611.802 917.116 656.374 917 701.966C917.029 710.863 917.719 719.747 919.065 728.549C919.73 735.264 920.881 741.927 922.507 748.487Z" fill="white"/>
<path fill-rule="evenodd" clip-rule="evenodd" d="M901.709 735.427C901.03 732.113 901.03 728.8 900.35 725.486C899.221 716.917 898.767 708.276 898.992 699.64C898.554 675.36 902.226 651.177 909.859 628.064C916.583 604.371 927.377 581.962 941.782 561.791C956.127 540.284 974.029 521.248 994.76 505.459C1014.87 490.503 1037.36 478.862 1061.32 470.997L1084.42 465.695L1098 463.044C1065.27 447.015 1029.83 436.911 993.402 433.221C970.035 431.276 946.507 432.39 923.444 436.535C900.766 440.809 878.817 448.171 858.24 458.405C840.459 467.812 823.826 479.15 808.657 492.204C794.574 504.955 782.245 519.435 771.98 535.282C766.623 544.383 762.078 553.918 758.396 563.779C757.038 567.093 756.358 570.407 755 573.72C771.661 614.066 796.364 650.784 827.675 681.746C849.639 702.952 874.563 721.025 901.709 735.427Z" fill="white"/>
<path fill-rule="evenodd" clip-rule="evenodd" d="M743.694 547.541C747.117 540.799 750.541 533.383 754.649 526.641C765.717 508.862 779.321 492.741 795.044 478.771C811.242 464.003 829.446 451.523 849.133 441.689C871.417 430.495 895.14 422.33 919.654 417.417C944.516 413.192 969.818 412.06 994.967 414.046C1018.02 416.307 1040.75 421.055 1062.75 428.205C1083.73 434.813 1103.93 443.629 1123 454.499C1121.63 449.78 1119.58 445.06 1118.21 441.015L1109.99 420.788C1096.99 392.686 1078.36 367.46 1055.22 346.624C1032.55 325.879 1005.73 310.033 976.481 300.103H975.796C948.943 290.771 920.739 285.762 892.267 285.27C862.025 284.216 831.793 287.625 802.575 295.383L777.243 302.8L766.973 306.845C742.808 352.675 730.131 403.534 730.001 455.173C729.94 486.457 734.553 517.58 743.694 547.541Z" fill="white"/>
<path fill-rule="evenodd" clip-rule="evenodd" d="M1137.61 441.009L1138.98 437.646C1140.35 432.939 1141.04 428.904 1142.41 424.869C1149.08 396.664 1150.7 367.539 1147.21 338.789C1143.32 310.103 1134.27 282.322 1120.46 256.745C1107.74 232.707 1091.06 210.894 1071.09 192.185C1051.77 173.989 1029.23 159.404 1004.57 149.145L989.479 143.093L983.993 141.748C899.882 160.919 826.913 211.926 781 283.644L798.145 278.937C829.068 271.271 860.891 267.653 892.783 268.177C923.16 269.124 953.216 274.565 981.935 284.317H982.621C1014.48 295.061 1043.68 312.244 1068.34 334.754C1093.21 357.187 1113.06 384.437 1126.64 414.781C1129.56 420.431 1132.08 426.273 1134.18 432.266C1135.62 435.059 1136.77 437.988 1137.61 441.009Z" fill="white"/>
<path fill-rule="evenodd" clip-rule="evenodd" d="M1153.19 432.292C1170.44 418.196 1185.33 401.613 1197.33 383.131C1213.52 358.674 1225.18 331.702 1231.81 303.409C1237.86 276.807 1239.49 249.451 1236.64 222.358C1234.66 207.022 1231.2 191.897 1226.3 177.183C1175.81 148.921 1118.46 134.023 1060.07 134C1046.28 134 1031.79 135.329 1018 136.657C1022.55 138.247 1026.94 140.249 1031.1 142.637C1055.5 154.174 1077.47 169.938 1095.94 189.141C1115.5 208.713 1131.37 231.419 1142.84 256.24C1155.41 282.621 1162.89 310.986 1164.91 339.948C1167 368.798 1163.97 397.78 1155.94 425.649C1155.32 427.968 1154.4 430.201 1153.19 432.292Z" fill="white"/>
<path fill-rule="evenodd" clip-rule="evenodd" d="M1143.76 480.558C1140.97 478.35 1138.65 475.624 1136.93 472.537C1135.31 479.584 1134.16 486.73 1133.52 493.927C1131.43 520.138 1135.64 546.463 1145.81 570.796C1186.77 682.424 1351.3 692.45 1375.88 535.369C1382.02 493.258 1361.54 445.132 1348.57 403.021C1335.6 360.909 1330.82 317.462 1356.76 301.419C1346.36 298.102 1336.48 293.378 1327.41 287.382C1308.97 276.687 1288.49 270.003 1272.11 291.393C1267.51 297.893 1264.9 305.547 1264.6 313.451C1264.72 316.829 1265.17 320.187 1265.96 323.477L1272.11 347.541C1284.4 394.331 1299.42 449.811 1260.5 485.906L1250.94 493.258C1235.1 503.068 1216.32 507.311 1197.69 505.29C1177.17 504.028 1157.89 495.189 1143.76 480.558Z" fill="white"/>
</g>
</g>
</svg>
