<svg width="40" height="59" viewBox="0 0 40 59" fill="none" xmlns="http://www.w3.org/2000/svg">
<path d="M40 19.4079C40 30.1266 29.6 46.5789 20 59C9.6 46.5789 0 30.1266 0 19.4079C0 8.68921 8.95431 0 20 0C31.0457 0 40 8.68921 40 19.4079Z" fill="#E40045"/>
<path fill-rule="evenodd" clip-rule="evenodd" d="M23.3955 20.5708C24.1137 19.9565 24.7334 19.2338 25.2325 18.4284C25.9062 17.3626 26.3917 16.1871 26.6676 14.9541C26.9191 13.7948 26.9869 12.6026 26.8685 11.4219C26.7862 10.7536 26.642 10.0945 26.438 9.45318C24.3371 8.22154 21.9505 7.57228 19.5206 7.57129C18.9465 7.57129 18.3437 7.62919 17.7697 7.6871C17.9592 7.75636 18.1418 7.8436 18.315 7.94767C19.3301 8.45048 20.2447 9.13748 21.0131 9.97432C21.8272 10.8273 22.4877 11.8168 22.9649 12.8985C23.488 14.0482 23.7993 15.2843 23.8834 16.5465C23.9704 17.8038 23.8442 19.0668 23.5103 20.2813C23.4845 20.3824 23.4459 20.4797 23.3955 20.5708ZM22.85 20.6866L22.7925 20.8314C22.7574 20.7014 22.7093 20.5753 22.649 20.455C22.5612 20.197 22.4557 19.9455 22.3333 19.7023C21.7652 18.3959 20.9344 17.2227 19.8935 16.257C18.8614 15.2879 17.6391 14.5481 16.3057 14.0855H16.277C15.075 13.6657 13.817 13.4314 12.5456 13.3907C11.2108 13.3681 9.87884 13.5239 8.58455 13.8539L7.86698 14.0566C9.78862 10.969 12.8427 8.77301 16.3631 7.94766L16.5927 8.00556L17.2242 8.26613C18.2563 8.70777 19.1998 9.33571 20.0084 10.1191C20.8441 10.9246 21.5424 11.8636 22.075 12.8985C22.6527 13.9997 23.0318 15.1957 23.1944 16.4307C23.3405 17.6684 23.2725 18.9223 22.9935 20.1366C22.9609 20.2352 22.9375 20.3338 22.9129 20.4377C22.8942 20.5169 22.8748 20.599 22.85 20.6866ZM6.39514 25.245L6.39519 25.2449C6.50458 25.0187 6.618 24.7843 6.74769 24.5663C7.2117 23.8028 7.78201 23.1105 8.44117 22.5107C9.12023 21.8765 9.88338 21.3406 10.7087 20.9183C11.6429 20.4376 12.6375 20.087 13.6651 19.876C14.7074 19.6946 15.7681 19.6459 16.8224 19.7312C17.7889 19.8283 18.7418 20.0322 19.664 20.3392C20.5438 20.623 21.3906 21.0016 22.1899 21.4684C22.1546 21.3439 22.1085 21.2194 22.0649 21.1016L22.0649 21.1015L22.0648 21.1014L22.0648 21.1013L22.0648 21.1012C22.0374 21.0274 22.0111 20.9562 21.989 20.8893L21.6446 20.0208C21.0996 18.814 20.3186 17.7308 19.3483 16.836C18.3982 15.9452 17.2738 15.2647 16.0475 14.8383H16.0188C14.893 14.4376 13.7106 14.2225 12.517 14.2014C11.2492 14.1561 9.98177 14.3025 8.7569 14.6356L7.69489 14.9541L7.26434 15.1278C6.25129 17.0959 5.71983 19.2798 5.71438 21.4973C5.71182 22.8407 5.90525 24.1772 6.28844 25.4638C6.32386 25.3923 6.35929 25.3191 6.39514 25.245ZM12.8615 33.498C12.8687 33.5704 12.8759 33.6428 12.8902 33.7152C11.7431 33.086 10.6898 32.2965 9.76162 31.37C8.43841 30.0174 7.3945 28.4134 6.69039 26.6508C6.7191 26.5784 6.74063 26.5061 6.76215 26.4337C6.78368 26.3613 6.80521 26.2889 6.83391 26.2165C6.9895 25.7857 7.18156 25.3692 7.40797 24.9716C7.84176 24.2793 8.36276 23.6467 8.95793 23.0897C9.59896 22.5194 10.3019 22.0241 11.0533 21.6131C11.9229 21.166 12.8504 20.8444 13.8087 20.6577C14.7834 20.4766 15.7777 20.428 16.7652 20.5129C18.3045 20.6741 19.8022 21.1156 21.1854 21.8158L20.6114 21.9316L19.6355 22.1632C18.6226 22.5068 17.6724 23.0154 16.8226 23.6687C15.9465 24.3585 15.1899 25.1901 14.5837 26.1297C13.975 27.0109 13.5188 27.9898 13.2347 29.0249C12.9121 30.0346 12.7569 31.0911 12.7754 32.1518C12.7659 32.5291 12.7851 32.9065 12.8328 33.2809C12.8472 33.3533 12.8544 33.4256 12.8615 33.498ZM15.5883 34.8443C14.9694 34.6699 14.3648 34.4472 13.78 34.1784C13.7122 33.8926 13.6642 33.6024 13.6365 33.3099C13.5804 32.9264 13.5516 32.5394 13.5504 32.1518C13.5552 30.1656 14.1337 28.2238 15.2152 26.564C15.7803 25.7049 16.478 24.9425 17.2818 24.3057C18.0647 23.6912 18.9489 23.2208 19.8938 22.916H19.9225L20.64 22.7423C20.9028 22.6686 21.1719 22.6202 21.4437 22.5975C21.1241 22.8952 20.8356 23.225 20.5826 23.5819L20.3243 24.0162C19.6478 25.1742 19.291 26.4938 19.291 27.8379C19.2914 28.4308 19.349 29.0223 19.4632 29.604C19.5744 30.1717 19.7476 30.7251 19.9799 31.2543C20.194 31.7891 20.4737 32.2949 20.8123 32.7598C21.175 33.3087 21.6205 33.7971 22.1326 34.2074C22.4617 34.4977 22.8287 34.7412 23.2233 34.9312C22.0159 35.2585 20.7709 35.424 19.5206 35.4234C18.1883 35.4329 16.8623 35.2377 15.5883 34.8443ZM22.764 22.1922C22.8361 22.3259 22.9336 22.444 23.051 22.5396C23.6452 23.1733 24.4555 23.5562 25.3186 23.6108C26.1018 23.6984 26.8913 23.5146 27.5574 23.0897L27.9592 22.7712C29.5804 21.222 28.9751 18.8484 28.4613 16.8335L28.4472 16.7781L28.1889 15.7358C28.1556 15.5933 28.1364 15.4479 28.1315 15.3016C28.1442 14.9592 28.2537 14.6277 28.4472 14.3461C29.1361 13.4197 29.9972 13.7092 30.7721 14.1724C31.1534 14.4321 31.5689 14.6367 32.0064 14.7804C30.9156 15.4753 31.1166 17.3572 31.6619 19.1812C31.7617 19.5148 31.872 19.8571 31.9841 20.2049C32.4848 21.7589 33.0211 23.4233 32.81 24.9137C31.7767 31.7175 24.8593 31.2832 23.1371 26.4482C22.7097 25.3942 22.5327 24.254 22.6205 23.1187C22.6476 22.8069 22.6955 22.4974 22.764 22.1922Z" fill="white"/>
</svg>
