<svg width="281" height="74" viewBox="0 0 281 74" fill="none" xmlns="http://www.w3.org/2000/svg">
<path fill-rule="evenodd" clip-rule="evenodd" d="M36.6156 5.98715e-05C43.8733 -0.0131069 50.9717 2.14571 57.0127 6.20331C63.0536 10.2609 67.7654 16.0349 70.5518 22.7946C73.3383 29.5543 74.0741 36.9958 72.6662 44.1775C71.2583 51.3592 67.77 57.9582 62.6426 63.1394C57.5153 68.3206 50.9794 71.8511 43.8621 73.2841C36.7447 74.7172 29.3659 73.9884 22.6594 71.1899C15.9529 68.3914 10.2202 63.6491 6.18662 57.563C2.15308 51.477 7.11801e-05 44.3208 5.94414e-05 37C-0.00861439 32.1443 0.932073 27.3345 2.76829 22.8458C4.60451 18.3571 7.30021 14.2778 10.7011 10.8411C14.1021 7.40449 18.1415 4.67804 22.5882 2.8178C27.0349 0.957564 31.8016 5.19894e-05 36.6156 5.98715e-05Z" fill="white"/>
<path fill-rule="evenodd" clip-rule="evenodd" d="M60.3004 12.5774C54.7615 7.02224 47.485 3.57504 39.7098 2.82259C31.9346 2.07014 24.1411 4.05893 17.6561 8.45043C11.171 12.8419 6.39524 19.3647 4.14165 26.9084C1.88805 34.4521 2.29595 42.5504 5.29592 49.8249C8.29589 57.0994 13.7025 63.1003 20.5954 66.8062C27.4883 70.5122 35.4415 71.694 43.101 70.1505C50.7606 68.6071 57.6532 64.4338 62.6055 58.341C67.5577 52.2482 70.2636 44.6126 70.2625 36.7338C70.2394 27.6697 66.6574 18.9839 60.3004 12.5774ZM36.3519 0.998231C43.3643 0.990752 50.2212 3.08255 56.0542 7.00872C61.8872 10.9349 66.4339 16.5188 69.1184 23.0533C71.803 29.5878 72.5046 36.7789 71.1345 43.7159C69.7644 50.6529 66.3842 57.0237 61.422 62.0216C56.4671 67.0269 50.1511 70.4365 43.2738 71.8185C36.3965 73.2005 29.2673 72.4928 22.7891 69.7849C16.3109 67.077 10.775 62.4909 6.88264 56.6072C2.99027 50.7236 0.916475 43.8072 0.92389 36.7338C0.915197 32.0385 1.82564 27.3876 3.60298 23.048C5.38032 18.7084 7.9896 14.7655 11.2811 11.4454C14.5726 8.12529 18.4817 5.49336 22.7839 3.70058C27.0861 1.90781 31.697 0.989463 36.3519 0.998231Z" fill="#E40045"/>
<path fill-rule="evenodd" clip-rule="evenodd" d="M23.1572 65.8814C24.5013 66.4992 25.8909 67.0109 27.3135 67.412C30.2419 68.3161 33.2896 68.7649 36.352 68.7429C39.2258 68.7444 42.0873 68.364 44.8626 67.6116C43.9556 67.175 43.1121 66.6152 42.3556 65.9479C41.1786 65.0048 40.1546 63.8822 39.3208 62.6206C38.5425 61.5521 37.8998 60.3896 37.4075 59.1602C36.8737 57.944 36.4755 56.6718 36.22 55.367C35.9576 54.0301 35.825 52.6705 35.8242 51.3077C35.8242 48.2182 36.6443 45.1851 38.1992 42.5235L38.793 41.5253C39.3745 40.7049 40.0377 39.9468 40.7722 39.2627C40.1475 39.3147 39.529 39.4261 38.925 39.5954L37.2756 39.9947H37.2096C35.0378 40.6952 33.0055 41.7765 31.206 43.189C29.3584 44.6527 27.7548 46.405 26.4559 48.3796C23.9702 52.1948 22.6405 56.6579 22.6294 61.2231C22.6322 62.1141 22.6983 63.0036 22.8273 63.885C22.8911 64.5574 23.0013 65.2245 23.1572 65.8814Z" fill="#8A0827"/>
<path fill-rule="evenodd" clip-rule="evenodd" d="M21.1117 64.8166C21.0457 64.4839 21.0457 64.1511 20.9797 63.8184C20.8701 62.958 20.8259 62.0903 20.8478 61.2231C20.8053 58.7852 21.1619 56.3568 21.9034 54.036C22.5565 51.6569 23.6049 49.4068 25.0042 47.3814C26.3975 45.2217 28.1364 43.3103 30.1501 41.7249C32.1035 40.2232 34.2876 39.0542 36.6156 38.2645L38.8587 37.7321L40.1782 37.4659C36.9988 35.8564 33.5565 34.8418 30.0182 34.4713C27.7485 34.2759 25.4631 34.3879 23.2229 34.804C21.0201 35.2332 18.8881 35.9724 16.8894 37.0001C15.1623 37.9446 13.5467 39.0832 12.0733 40.394C10.7053 41.6743 9.50773 43.1283 8.51068 44.7195C7.99027 45.6334 7.54882 46.5908 7.1912 47.581C7.05925 47.9137 6.99328 48.2465 6.86133 48.5792C8.47972 52.6304 10.8791 56.3174 13.9205 59.4263C16.054 61.5557 18.4749 63.3704 21.1117 64.8166Z" fill="#9D082E"/>
<path fill-rule="evenodd" clip-rule="evenodd" d="M5.9377 45.8509C6.26757 45.1854 6.59744 44.4534 6.99328 43.788C8.0598 42.0332 9.37067 40.442 10.8857 39.0632C12.4466 37.6055 14.2007 36.3737 16.0977 35.4031C18.245 34.2982 20.5309 33.4923 22.893 33.0074C25.2887 32.5904 27.7268 32.4786 30.1501 32.6747C32.3714 32.8978 34.5617 33.3665 36.6815 34.0721C38.7036 34.7244 40.65 35.5946 42.4872 36.6675C42.3553 36.2016 42.1574 35.7358 42.0254 35.3365L41.2337 33.3401C39.9812 30.5664 38.186 28.0766 35.9558 26.02C33.772 23.9724 31.1876 22.4084 28.3688 21.4283H28.3029C25.7153 20.5072 22.9975 20.0128 20.254 19.9642C17.3399 19.8602 14.4268 20.1967 11.6115 20.9624L9.17042 21.6945L8.18081 22.0937C5.8523 26.6172 4.63075 31.6371 4.61822 36.734C4.61234 39.8218 5.05693 42.8937 5.9377 45.8509Z" fill="#AF0735"/>
<path fill-rule="evenodd" clip-rule="evenodd" d="M43.8728 35.2034L44.0048 34.8707C44.1367 34.4048 44.2027 34.0055 44.3346 33.6063C44.9761 30.8153 45.1323 27.9332 44.7965 25.0883C44.4227 22.2496 43.5514 19.5006 42.2235 16.9696C40.9993 14.591 39.3944 12.4325 37.4734 10.5811C35.6149 8.78053 33.4462 7.33721 31.0739 6.3221L29.6225 5.72318L29.0947 5.59009C21.003 7.48716 13.9833 12.5345 9.56641 19.6315L11.2158 19.1656C14.1907 18.407 17.2521 18.049 20.3202 18.1009C23.2424 18.1945 26.1339 18.733 28.8968 19.698H28.9627C32.0276 20.7612 34.8371 22.4615 37.2095 24.689C39.6019 26.9088 41.5114 29.6054 42.8172 32.6081C43.0987 33.1671 43.3412 33.7453 43.543 34.3383C43.6816 34.6147 43.7921 34.9045 43.8728 35.2034Z" fill="#C1043A"/>
<path fill-rule="evenodd" clip-rule="evenodd" d="M45.2585 34.6043C46.9094 33.1924 48.3337 31.5312 49.4809 29.6799C51.0294 27.2301 52.1454 24.5283 52.7795 21.6943C53.3577 19.0296 53.5135 16.2894 53.2414 13.5756C53.0521 12.0394 52.7208 10.5244 52.2518 9.05039C47.4228 6.21945 41.9374 4.72714 36.352 4.72485C35.0326 4.72485 33.6471 4.85795 32.3276 4.99104C32.7633 5.15023 33.183 5.35077 33.5811 5.58996C35.9142 6.74568 38.0164 8.32475 39.7827 10.2482C41.6538 12.2088 43.1719 14.4832 44.2689 16.9695C45.4712 19.612 46.1866 22.4533 46.3801 25.3543C46.5799 28.2442 46.2899 31.1473 45.5224 33.9389C45.4631 34.1712 45.3744 34.3949 45.2585 34.6043Z" fill="#E40045"/>
<path fill-rule="evenodd" clip-rule="evenodd" d="M44.4667 39.1296C44.1968 38.9097 43.9727 38.6384 43.8069 38.3311C43.6495 39.0326 43.5393 39.744 43.477 40.4605C43.2754 43.07 43.6821 45.6909 44.6646 48.1134C48.623 59.2267 64.5227 60.2249 66.8978 44.5864C67.4915 40.394 65.5123 35.6026 64.2588 31.4102C63.0053 27.2177 62.5435 22.8922 65.0505 21.2951C64.0449 20.9649 63.0901 20.4945 62.2136 19.8976C60.4323 18.8329 58.4531 18.1674 56.8697 20.2969C56.425 20.944 56.1732 21.7061 56.144 22.4929C56.1554 22.8292 56.1996 23.1636 56.276 23.4911L56.8697 25.8868C58.0573 30.5451 59.5087 36.0685 55.7482 39.662L54.8246 40.394C53.2936 41.3706 51.479 41.793 49.6786 41.5918C47.6949 41.4662 45.8323 40.5862 44.4667 39.1296Z" fill="#E40045"/>
<path d="M270.23 24.822C270.309 25.5398 270.609 26.2146 271.087 26.7519C271.326 27.0297 271.617 27.2561 271.945 27.4173C272.255 27.6344 272.623 27.7505 273 27.7501C273.397 27.7411 273.784 27.6263 274.122 27.4173C274.441 27.2727 274.715 27.0426 274.914 26.7519C275.152 26.4818 275.332 26.1645 275.441 25.8202C275.571 25.5034 275.638 25.1645 275.639 24.822H279.004C278.93 25.5038 278.775 26.1741 278.542 26.8184C278.284 27.5232 277.904 28.1765 277.421 28.7483C276.91 29.3582 276.282 29.8564 275.573 30.2123C274.764 30.575 273.886 30.7566 273 30.7447C272.029 30.7606 271.064 30.5795 270.164 30.2123C269.455 29.8564 268.827 29.3582 268.316 28.7483C267.828 28.1911 267.468 27.5322 267.261 26.8184C267.016 26.181 266.882 25.5055 266.865 24.822H270.23ZM275.771 42.7896L270.032 60.0253C269.886 60.4417 269.619 60.8042 269.266 61.0654C268.913 61.3266 268.49 61.4743 268.052 61.4893H265.084V31.6098H269.57V50.5756H269.768L275.441 33.0738C275.57 32.6466 275.832 32.273 276.189 32.009C276.546 31.7451 276.978 31.605 277.421 31.6098H280.39V61.4893H275.903V42.7896H275.771ZM258.024 42.7896L252.285 60.0253C252.156 60.4524 251.894 60.826 251.537 61.09C251.18 61.354 250.748 61.4941 250.305 61.4893H247.403V31.6098H251.823V50.5756H252.021L257.695 33.0738C257.844 32.6469 258.121 32.277 258.487 32.0149C258.853 31.7528 259.291 31.6113 259.74 31.6098H262.643V61.4893H258.156V42.7896H258.024ZM229.656 61.4893V33.7393C229.672 33.1798 229.9 32.6478 230.292 32.252C230.685 31.8562 231.212 31.6265 231.767 31.6098H234.208V44.2537H235.131C236.055 44.2829 236.954 43.9489 237.638 43.322C238.452 42.4359 238.981 41.3225 239.156 40.1278C239.222 39.8616 239.354 39.3292 239.486 38.5307C239.618 37.7321 240.211 35.0702 240.607 33.34C240.7 32.8646 240.956 32.4373 241.33 32.1331C241.704 31.8289 242.172 31.6672 242.652 31.6763H245.225C244.896 33.2069 244.632 34.6709 244.302 36.135C243.972 37.599 243.642 39.1296 243.378 40.5936C243.147 41.8594 242.652 43.0615 241.927 44.1206C241.39 44.9364 240.635 45.5824 239.75 45.9839V46.117C240.774 46.4628 241.656 47.1415 242.257 48.0468C242.933 49.1007 243.403 50.2753 243.642 51.5073L244.632 56.4983C244.962 58.1619 245.357 59.8256 245.687 61.4893H242.85C242.357 61.5103 241.874 61.3444 241.495 61.0243C241.117 60.7041 240.871 60.2529 240.805 59.7591C240.607 58.894 240.409 58.0289 240.277 57.0972C240.145 56.1655 239.684 54.1691 239.354 52.7051C239.183 51.4944 238.706 50.3485 237.968 49.3778C237.277 48.7626 236.383 48.4303 235.461 48.4461H234.208V59.3598C234.208 59.9246 233.985 60.4662 233.589 60.8656C233.194 61.2649 232.657 61.4893 232.097 61.4893H229.656ZM220.947 31.3436C222.026 31.3246 223.099 31.5051 224.114 31.876C224.933 32.2058 225.674 32.7045 226.291 33.34C226.882 33.9563 227.313 34.7108 227.544 35.5361C227.874 36.4063 228.031 37.3333 228.006 38.2645L223.52 39.4623C223.568 38.5369 223.362 37.6161 222.926 36.8004C222.723 36.4585 222.432 36.1787 222.083 35.9912C221.734 35.8036 221.342 35.7153 220.947 35.7357C220.485 35.7183 220.027 35.8337 219.628 36.0684C219.263 36.2756 218.983 36.6054 218.836 37.0001C218.636 37.3492 218.501 37.7328 218.44 38.1314C218.363 38.5263 218.319 38.927 218.308 39.3292V54.4353C218.32 54.7497 218.364 55.0619 218.44 55.367C218.449 55.7255 218.564 56.0731 218.77 56.3652C218.985 56.6578 219.254 56.9063 219.562 57.0972C219.941 57.3232 220.375 57.4384 220.815 57.4299C222.464 57.4299 223.388 56.1655 223.388 53.7033L225.697 54.1026L228.006 54.4353C228.024 56.3728 227.371 58.2556 226.159 59.7591C224.971 61.09 223.19 61.7555 220.947 61.7555C218.704 61.7555 216.659 61.09 215.537 59.8922C214.416 58.6943 213.756 56.831 213.756 54.4353V39.5289C213.745 38.4729 213.878 37.4205 214.152 36.4012C214.357 35.4595 214.762 34.574 215.339 33.8058C215.932 33.0331 216.702 32.4167 217.582 32.0091C218.648 31.5593 219.792 31.3329 220.947 31.3436ZM197.13 61.4893V48.4461H196.009C195.54 48.4191 195.07 48.4877 194.628 48.6478C194.186 48.8079 193.781 49.0561 193.436 49.3778C192.709 50.3476 192.253 51.4968 192.116 52.7051C191.787 54.1691 191.523 55.6332 191.259 57.0972C190.995 58.5612 190.863 58.894 190.731 59.8256C190.636 60.3127 190.371 60.7491 189.983 61.0547C189.595 61.3602 189.111 61.5146 188.62 61.4893H185.783L187.828 51.5073C188.067 50.2753 188.537 49.1007 189.214 48.0468C189.815 47.1415 190.696 46.4628 191.721 46.117V45.9839C190.813 45.6185 190.049 44.9643 189.543 44.1206C188.814 43.0706 188.34 41.8625 188.158 40.5936C187.828 39.1296 187.498 37.599 187.234 36.135L186.245 31.6763H190.533L192.38 40.1278C192.499 40.823 192.722 41.4961 193.04 42.1242C193.277 42.594 193.589 43.0212 193.964 43.3886C194.267 43.6801 194.626 43.9065 195.019 44.054C195.402 44.1845 195.803 44.2519 196.207 44.2537H197.13V33.7393C197.13 33.1745 197.353 32.6329 197.749 32.2335C198.145 31.8341 198.682 31.6098 199.242 31.6098H201.683V44.2537H202.474C203.369 44.2977 204.245 43.9872 204.915 43.3886C205.641 42.7896 206.103 41.7249 206.499 40.1278C206.561 39.5647 206.671 39.0081 206.829 38.4641C207.224 36.8004 207.62 35.0702 207.95 33.34C208.043 32.8646 208.299 32.4373 208.673 32.1331C209.047 31.8289 209.515 31.6672 209.995 31.6763H212.568C212.238 33.2069 211.975 34.6709 211.645 36.135L210.655 40.5936C210.474 41.8625 209.999 43.0706 209.27 44.1206C208.765 44.9643 208 45.6185 207.093 45.9839C208.106 46.3506 208.981 47.0248 209.6 47.9137C210.263 48.9982 210.732 50.1921 210.985 51.4407L213.03 61.4227H208.478L206.697 52.6386C206.558 51.4191 206.077 50.2649 205.311 49.3112C204.62 48.6961 203.726 48.3638 202.804 48.3796H201.683V59.3598C201.683 59.9246 201.46 60.4662 201.064 60.8656C200.668 61.2649 200.131 61.4893 199.572 61.4893H197.13ZM170.807 61.4893V33.7393C170.807 33.1745 171.029 32.6329 171.425 32.2335C171.821 31.8341 172.358 31.6098 172.918 31.6098H183.936V33.8724C183.936 34.152 183.881 34.4289 183.775 34.6873C183.669 34.9457 183.513 35.1804 183.317 35.3782C183.121 35.5759 182.889 35.7328 182.632 35.8398C182.376 35.9468 182.102 36.0019 181.825 36.0019H175.359V44.1206H182.814V46.3832C182.814 46.9479 182.592 47.4896 182.196 47.889C181.8 48.2883 181.263 48.5127 180.703 48.5127H175.359V57.0972H183.936V59.3598C183.936 59.9246 183.713 60.4662 183.317 60.8656C182.921 61.2649 182.384 61.4893 181.825 61.4893H170.807ZM163.154 61.4893V48.4461H157.81V59.3598C157.81 59.9246 157.588 60.4662 157.192 60.8656C156.796 61.2649 156.259 61.4893 155.699 61.4893H153.258V33.7393C153.274 33.1798 153.502 32.6478 153.895 32.252C154.287 31.8562 154.814 31.6265 155.369 31.6098H157.81V44.1206H163.154V33.7393C163.154 33.1745 163.376 32.6329 163.772 32.2335C164.168 31.8341 164.705 31.6098 165.265 31.6098H167.706V59.3598C167.706 59.9246 167.484 60.4662 167.088 60.8656C166.692 61.2649 166.155 61.4893 165.595 61.4893H163.154ZM151.081 53.8364C151.081 56.4317 150.487 58.4281 149.299 59.7591C148.112 61.09 146.331 61.7555 143.824 61.7555C141.317 61.7555 139.535 61.09 138.414 59.8256C137.292 58.5612 136.698 56.6979 136.698 54.3022V39.3292C136.688 38.2295 136.821 37.1331 137.094 36.0684C137.322 35.1628 137.751 34.321 138.348 33.6062C138.947 32.8723 139.718 32.3006 140.591 31.9425C141.638 31.5154 142.761 31.3115 143.89 31.3436C145.055 31.3264 146.214 31.5064 147.32 31.876C148.166 32.2173 148.915 32.7663 149.497 33.4731C150.099 34.1754 150.509 35.0242 150.685 35.9353C150.958 37.0227 151.091 38.141 151.081 39.2627V53.8364ZM146.397 38.9299C146.436 38.1406 146.253 37.3563 145.869 36.6673C145.539 36.0019 144.879 35.7357 143.89 35.7357C143.425 35.6915 142.959 35.8089 142.57 36.0684C142.239 36.3143 141.969 36.6329 141.778 37.0001C141.569 37.3688 141.434 37.7761 141.383 38.1979C141.306 38.5929 141.262 38.9935 141.251 39.3958V54.4353C141.243 55.1669 141.45 55.8843 141.844 56.4983C142.068 56.8108 142.368 57.0604 142.714 57.2235C143.06 57.3866 143.442 57.4576 143.824 57.4299C144.213 57.4646 144.604 57.3896 144.953 57.2134C145.303 57.0371 145.597 56.7665 145.803 56.4317C146.222 55.7305 146.428 54.9208 146.397 54.1026V38.9299ZM124.757 36.0019V45.5846H126.406C127.77 45.5846 128.76 45.1853 129.375 44.3868C129.974 43.2658 130.249 41.9975 130.167 40.7267C130.226 39.5216 129.951 38.3237 129.375 37.2663C128.847 36.4012 127.924 36.0019 126.472 36.0019H124.757ZM126.736 31.6098C129.441 31.6098 131.486 32.3418 132.74 33.8058C133.993 35.2699 134.587 37.5325 134.587 40.6602C134.584 41.9538 134.474 43.2448 134.257 44.5199C134.021 45.5766 133.572 46.5732 132.938 47.4479C132.278 48.2674 131.443 48.9269 130.497 49.3778C129.272 49.832 127.975 50.0575 126.67 50.0432H124.757V59.3598C124.766 59.6362 124.72 59.9117 124.621 60.1697C124.522 60.4277 124.373 60.6631 124.182 60.8617C123.991 61.0604 123.763 61.2183 123.51 61.3261C123.258 61.4339 122.986 61.4894 122.712 61.4893H120.205V33.7393C120.205 33.1745 120.427 32.6329 120.823 32.2335C121.219 31.8341 121.756 31.6098 122.316 31.6098H126.736ZM117.632 53.8364C117.632 56.4317 117.104 58.4281 115.917 59.7591C114.729 61.09 112.948 61.7555 110.441 61.7555C107.934 61.7555 106.086 61.09 104.965 59.8256C103.843 58.5612 103.25 56.6979 103.25 54.3022V39.3292C103.26 38.2264 103.415 37.1299 103.711 36.0684C103.94 35.1628 104.368 34.321 104.965 33.6062C105.524 32.8591 106.278 32.2832 107.142 31.9425C108.191 31.5226 109.313 31.3189 110.441 31.3436C111.606 31.3213 112.767 31.5013 113.871 31.876C114.727 32.2346 115.493 32.78 116.115 33.4731C116.666 34.2077 117.069 35.0442 117.302 35.9353C117.552 37.0257 117.663 38.1439 117.632 39.2627V53.8364ZM113.014 38.9299C113.019 38.1441 112.838 37.3683 112.486 36.6673C112.156 36.0019 111.43 35.7357 110.441 35.7357C109.977 35.7016 109.515 35.8182 109.121 36.0684C108.791 36.3143 108.52 36.6329 108.33 37.0001C108.172 37.3846 108.062 37.7868 108 38.1979C107.923 38.5929 107.879 38.9935 107.868 39.3958V54.4353C107.861 55.1669 108.067 55.8843 108.462 56.4983C108.685 56.8108 108.985 57.0604 109.331 57.2235C109.678 57.3866 110.06 57.4576 110.441 57.4299C110.83 57.4646 111.221 57.3896 111.57 57.2134C111.92 57.0371 112.214 56.7665 112.42 56.4317C112.839 55.7305 113.046 54.9208 113.014 54.1026V38.9299ZM97.18 45.8508C97.7867 46.0271 98.3455 46.3404 98.8142 46.767C99.2829 47.1936 99.6491 47.7224 99.885 48.313C100.378 49.6312 100.624 51.0302 100.611 52.4389C100.611 55.5666 99.9509 57.8292 98.6314 59.2932C97.312 60.7573 95.2668 61.4893 92.5618 61.4893H86.4263V33.7393C86.4428 33.1798 86.6706 32.6478 87.063 32.252C87.4554 31.8562 87.9828 31.6265 88.5374 31.6098H92.8917C95.5307 31.6098 97.4439 32.3418 98.5655 33.7393C99.687 35.1368 100.347 37.1332 100.347 39.7285C100.389 40.9605 100.164 42.1871 99.687 43.322C99.1608 44.3807 98.2692 45.209 97.18 45.6512V45.8508ZM96.2564 52.0396C96.3383 50.9378 96.0602 49.8393 95.4647 48.912C94.9369 48.2465 94.0792 47.9137 92.7598 47.9137H91.0444V57.1637H92.8917C93.4894 57.1969 94.0842 57.0584 94.607 56.7645C95.0535 56.4901 95.4182 56.0993 95.6626 55.6332C95.9242 55.1387 96.0815 54.5949 96.1244 54.036C96.1904 53.3706 96.2564 52.7051 96.2564 52.0396ZM95.9925 39.795C96.0819 38.7551 95.8013 37.7171 95.2008 36.867C94.836 36.5351 94.4081 36.2813 93.9431 36.1212C93.4781 35.961 92.9858 35.8978 92.4959 35.9353H91.0444V43.6548H92.5618C93.0318 43.694 93.5047 43.6311 93.9485 43.4704C94.3924 43.3097 94.7969 43.0549 95.1348 42.7231C95.7696 41.8875 96.0752 40.8444 95.9925 39.795Z" fill="#241F20"/>
<path d="M251.624 22.0937C251.354 22.9114 250.82 23.6142 250.107 24.0901C249.317 24.5899 248.4 24.8445 247.468 24.8221C246.816 24.8203 246.169 24.7078 245.555 24.4894C245.029 24.2583 244.557 23.9182 244.169 23.4912C243.829 23.0737 243.561 22.6012 243.378 22.0937C243.184 21.5154 243.095 20.9069 243.114 20.2969V17.3023C243.1 16.7144 243.189 16.1286 243.378 15.5721C243.575 15.0506 243.842 14.5582 244.169 14.1081C244.56 13.7019 245.033 13.3844 245.555 13.1764C246.156 12.9031 246.809 12.7668 247.468 12.7771C248.4 12.7547 249.317 13.0093 250.107 13.5091C250.808 14.0259 251.337 14.7453 251.624 15.5721L249.645 16.3041C249.523 15.8614 249.27 15.4668 248.919 15.1728C248.495 14.8695 247.988 14.7067 247.468 14.707C247.122 14.7151 246.783 14.8063 246.478 14.9732C246.189 15.0728 245.936 15.2583 245.753 15.5055C245.547 15.7379 245.39 16.0095 245.291 16.3041C245.215 16.5866 245.171 16.8768 245.159 17.1692V20.3635C245.171 20.6778 245.215 20.99 245.291 21.2951C245.42 21.5751 245.575 21.8425 245.753 22.0937C245.929 22.3626 246.182 22.5714 246.478 22.6926C246.788 22.8364 247.127 22.9048 247.468 22.8922C247.992 22.9245 248.51 22.7584 248.919 22.4264C249.285 22.118 249.54 21.6972 249.645 21.2286L251.624 22.0937ZM233.679 24.689V12.8437H235.725V17.8347H237.836C238.042 17.7983 238.243 17.731 238.43 17.635L239.023 17.1027C239.179 16.8029 239.311 16.4914 239.419 16.171L240.475 12.9768H242.454L241.398 16.4372C241.251 16.9673 241.005 17.4643 240.673 17.9012C240.439 18.2558 240.088 18.5152 239.683 18.6332C240.161 18.784 240.578 19.0876 240.871 19.4983C241.142 19.9609 241.363 20.4518 241.53 20.9624L242.652 24.7555H240.541L239.551 21.4947C239.443 21.1743 239.311 20.8628 239.155 20.5631C239.014 20.335 238.835 20.1325 238.627 19.9642L238.034 19.698H235.725V24.8221L233.679 24.689ZM224.443 24.689V12.8437H232.36V14.707H226.488V17.8347H231.502V19.6314H226.488V22.8257H232.36V24.689H224.443ZM220.814 14.707H217.252V18.0343C217.263 19.0141 217.197 19.9932 217.054 20.9624C217.004 21.698 216.825 22.419 216.526 23.0919C216.219 23.6088 215.816 24.0608 215.339 24.4228C214.745 24.7342 214.093 24.9156 213.425 24.9552C213.414 24.6628 213.369 24.3726 213.293 24.0901L213.096 23.225C213.461 23.1323 213.815 22.9984 214.151 22.8257C214.439 22.6254 214.667 22.3492 214.811 22.0271C215.031 21.639 215.166 21.2079 215.207 20.7627C215.294 20.1678 215.338 19.5673 215.339 18.966V12.8437H222.794V24.689H220.814V14.707ZM210.193 24.689V14.707H205.706V24.689H203.661V12.8437H212.238V24.689H210.193ZM199.901 24.689V17.7016H199.835L199.241 19.2322L198.383 21.0955L197.46 23.0253H195.81L195.151 21.6278L194.029 19.0991L193.435 17.7016H193.369V24.689H191.324V12.8437H193.237L194.755 16.2376L195.678 18.3671C196.008 19.0991 196.272 19.8311 196.602 20.4965H196.668L197.592 18.234L198.449 16.2376L199.967 12.8437H201.946V24.689H199.901ZM185.518 14.707C185.157 14.7017 184.798 14.7696 184.463 14.9066C184.178 15.0469 183.93 15.2519 183.737 15.5055C183.529 15.7261 183.392 16.0041 183.341 16.3041C183.227 16.5771 183.182 16.8743 183.209 17.1692V20.3635C183.184 20.68 183.229 20.9984 183.341 21.2951C183.392 21.5951 183.529 21.8731 183.737 22.0937C183.93 22.3473 184.178 22.5523 184.463 22.6926C184.798 22.8296 185.157 22.8975 185.518 22.8922C185.837 22.8969 186.153 22.8287 186.442 22.6926C186.732 22.593 186.985 22.4074 187.168 22.1602C187.396 21.9458 187.557 21.6679 187.63 21.3617C187.759 21.0449 187.826 20.7059 187.828 20.3635V17.1692C187.832 16.8476 187.764 16.529 187.63 16.2376C187.557 15.9313 187.396 15.6534 187.168 15.439C186.968 15.2095 186.72 15.0277 186.442 14.9066C186.153 14.7706 185.837 14.7023 185.518 14.707ZM185.518 12.7771C186.127 12.778 186.731 12.8908 187.3 13.1099C187.829 13.3247 188.308 13.6488 188.705 14.0614C189.103 14.474 189.411 14.9659 189.609 15.5055C189.802 16.0838 189.892 16.6923 189.873 17.3023V20.2969C189.897 20.929 189.807 21.5602 189.609 22.1602C189.396 22.703 189.083 23.1999 188.685 23.6242C188.292 24.0113 187.819 24.3066 187.3 24.4894C186.731 24.7084 186.127 24.8212 185.518 24.8221C184.866 24.8256 184.219 24.713 183.605 24.4894C183.074 24.2678 182.6 23.9263 182.22 23.4912C181.848 23.0595 181.558 22.5634 181.362 22.0271C181.205 21.4632 181.117 20.8823 181.098 20.2969V17.3023C181.117 16.7169 181.205 16.136 181.362 15.5721C181.558 15.0358 181.848 14.5397 182.22 14.1081C182.586 13.6733 183.066 13.3506 183.605 13.1764C184.204 12.8966 184.859 12.76 185.518 12.7771ZM171.796 24.689V12.8437H173.841V17.8347H175.952L176.546 17.635C176.738 17.4747 176.915 17.2965 177.074 17.1027C177.229 16.8029 177.362 16.4914 177.47 16.171L178.525 12.9768H180.504L179.449 16.4372C179.302 16.9673 179.055 17.4643 178.723 17.9012C178.49 18.2558 178.139 18.5152 177.734 18.6332C178.212 18.784 178.629 19.0876 178.921 19.4983C179.193 19.9609 179.414 20.4518 179.581 20.9624L180.702 24.7555H178.591L177.602 21.4947C177.494 21.1743 177.361 20.8628 177.206 20.5631C177.064 20.335 176.886 20.1325 176.678 19.9642L176.084 19.698H173.841V24.8221L171.796 24.689ZM160.976 12.5109C160.571 12.5216 160.168 12.4538 159.789 12.3113C159.484 12.1441 159.215 11.918 158.997 11.6458C158.814 11.4088 158.679 11.1373 158.601 10.8473C158.475 10.6001 158.407 10.3268 158.403 10.0487H159.921C159.911 10.1852 159.934 10.322 159.987 10.448C159.987 10.5811 160.118 10.6476 160.184 10.7807C160.263 10.9035 160.378 10.997 160.514 11.0469L160.976 11.18L161.438 11.0469C161.574 10.997 161.69 10.9035 161.768 10.7807L161.966 10.448C162.019 10.322 162.041 10.1852 162.032 10.0487H163.483C163.472 10.3193 163.427 10.5875 163.351 10.8473C163.222 11.1273 163.068 11.3946 162.889 11.6458C162.68 11.9016 162.436 12.1257 162.164 12.3113C161.784 12.4538 161.381 12.5216 160.976 12.5109ZM156.424 24.689V12.8437H158.469V21.2286H158.535L161.24 16.9696L164.011 12.7771H165.726V24.689H163.681V16.7034H163.615L161.306 20.2969L159.789 22.4929L158.337 24.689H156.424ZM149.431 21.162C149.434 20.9615 149.394 20.7626 149.315 20.5789C149.235 20.3952 149.117 20.2309 148.969 20.0973C148.777 19.9117 148.549 19.7685 148.299 19.6768C148.049 19.5851 147.783 19.547 147.517 19.5649H144.945V22.8257H147.517C148.031 22.8547 148.541 22.7146 148.969 22.4264C149.129 22.2598 149.253 22.0612 149.332 21.8435C149.412 21.6257 149.445 21.3936 149.431 21.162ZM152.597 24.689V12.8437H154.643V24.689H152.597ZM142.899 24.689V12.8437H144.945V17.7016H147.583C148.167 17.6818 148.748 17.772 149.299 17.9678C149.726 18.1564 150.125 18.4027 150.486 18.6998C150.806 19.0083 151.074 19.3681 151.278 19.7645C151.459 20.184 151.549 20.6379 151.542 21.0955C151.542 21.6451 151.43 22.1888 151.212 22.6926C151.026 23.1196 150.757 23.5044 150.42 23.8239C150.023 24.1233 149.577 24.3487 149.101 24.4894C148.585 24.6291 148.052 24.6963 147.517 24.689H142.899ZM139.535 21.2286C139.529 21.0008 139.484 20.7757 139.403 20.5631C139.317 20.3714 139.206 20.1923 139.073 20.0307C138.899 19.881 138.697 19.7679 138.479 19.698C138.213 19.5627 137.919 19.4942 137.621 19.4983H135.048V22.8257H137.621C137.914 22.8533 138.208 22.8076 138.479 22.6926C138.697 22.6227 138.899 22.5096 139.073 22.3599C139.206 22.1982 139.317 22.0191 139.403 21.8275C139.478 21.6362 139.523 21.434 139.535 21.2286ZM139.205 16.2376C139.217 15.8239 139.076 15.4206 138.809 15.1063C138.405 14.8184 137.917 14.6776 137.423 14.707H135.048V17.7681H137.423C137.674 17.7895 137.926 17.7593 138.164 17.6792C138.402 17.5991 138.622 17.4709 138.809 17.3023C139.072 17.0118 139.213 16.6306 139.205 16.2376ZM141.58 21.2951C141.602 21.7754 141.511 22.2541 141.316 22.6926C141.13 23.1196 140.861 23.5044 140.524 23.8239C140.224 24.1201 139.864 24.3471 139.469 24.4894C139.041 24.6209 138.596 24.6882 138.149 24.689H133.003V12.8437H137.687C138.225 12.8563 138.758 12.9459 139.271 13.1099C139.707 13.2496 140.11 13.4759 140.458 13.7753C140.751 14.0531 140.976 14.3945 141.118 14.7735C141.306 15.191 141.396 15.6463 141.382 16.1045C141.382 16.3041 141.316 16.5703 141.316 16.7699C141.239 16.9962 141.151 17.2183 141.052 17.4354L140.524 18.0343C140.299 18.2638 140.029 18.4449 139.733 18.5667C140.03 18.6175 140.306 18.7565 140.524 18.966C140.773 19.1358 140.977 19.3642 141.118 19.6314C141.256 19.885 141.366 20.1527 141.448 20.43C141.529 20.7113 141.574 21.0021 141.58 21.2951ZM127.198 14.707C126.836 14.7017 126.477 14.7696 126.142 14.9066C125.857 15.0469 125.609 15.2519 125.416 15.5055C125.209 15.7261 125.071 16.0041 125.02 16.3041C124.906 16.5771 124.861 16.8743 124.888 17.1692V20.3635C124.863 20.68 124.908 20.9984 125.02 21.2951C125.071 21.5951 125.209 21.8731 125.416 22.0937C125.609 22.3473 125.857 22.5523 126.142 22.6926C126.477 22.8296 126.836 22.8975 127.198 22.8922C127.516 22.8969 127.832 22.8287 128.121 22.6926C128.411 22.593 128.664 22.4074 128.847 22.1602C129.075 21.9458 129.236 21.6679 129.309 21.3617C129.438 21.0449 129.505 20.7059 129.507 20.3635V17.1692C129.511 16.8476 129.444 16.529 129.309 16.2376C129.236 15.9313 129.075 15.6534 128.847 15.439C128.647 15.2095 128.399 15.0277 128.121 14.9066C127.832 14.7706 127.516 14.7023 127.198 14.707ZM127.198 12.7771C127.783 12.7624 128.364 12.8668 128.909 13.0841C129.453 13.3013 129.948 13.6269 130.364 14.0415C130.784 14.4478 131.101 14.9499 131.288 15.5055C131.481 16.0838 131.571 16.6923 131.552 17.3023V20.2969C131.589 20.9356 131.476 21.574 131.222 22.1602C131.056 22.7104 130.762 23.2125 130.364 23.6242C129.971 24.0113 129.498 24.3066 128.979 24.4894C128.41 24.7084 127.806 24.8212 127.198 24.8221C126.524 24.8203 125.856 24.7079 125.218 24.4894C124.716 24.2504 124.267 23.9108 123.899 23.4912C123.528 23.0595 123.237 22.5634 123.041 22.0271C122.884 21.4632 122.796 20.8823 122.777 20.2969V17.3023C122.796 16.7169 122.884 16.136 123.041 15.5721C123.237 15.0358 123.528 14.5397 123.899 14.1081C124.252 13.688 124.706 13.3671 125.218 13.1764C125.843 12.9038 126.517 12.7677 127.198 12.7771ZM116.708 14.707V24.689H114.662V12.8437H122.513V14.707H116.708ZM111.76 16.5037C111.776 16.2562 111.736 16.0083 111.645 15.778C111.554 15.5477 111.413 15.3409 111.232 15.1728C110.808 14.8695 110.3 14.7067 109.78 14.707H107.339V18.3005H109.846C110.101 18.3092 110.354 18.2666 110.592 18.1752C110.83 18.0838 111.048 17.9454 111.232 17.7681C111.401 17.6048 111.535 17.4084 111.625 17.191C111.716 16.9735 111.762 16.7397 111.76 16.5037ZM113.871 16.5703C113.855 17.0538 113.743 17.5291 113.541 17.9678C113.387 18.3956 113.139 18.7825 112.815 19.0991C112.439 19.4264 112.016 19.6956 111.562 19.8976C111.057 20.0927 110.519 20.1832 109.978 20.1638H107.339V24.689H105.294V12.8437H109.846C110.383 12.8671 110.915 12.9565 111.43 13.1099C111.879 13.2643 112.302 13.4889 112.683 13.7753C113.042 14.1163 113.333 14.5227 113.541 14.9732C113.759 15.477 113.871 16.0207 113.871 16.5703ZM99.8184 14.707C99.4563 14.6958 99.0962 14.7639 98.7628 14.9066C98.4782 15.0469 98.2297 15.2519 98.0371 15.5055C97.8294 15.7261 97.6916 16.0041 97.6412 16.3041C97.5272 16.5771 97.4819 16.8743 97.5093 17.1692V20.3635C97.4838 20.68 97.5289 20.9984 97.6412 21.2951C97.6916 21.5951 97.8294 21.8731 98.0371 22.0937C98.2297 22.3473 98.4782 22.5523 98.7628 22.6926C99.0962 22.8353 99.4563 22.9034 99.8184 22.8922C100.137 22.8969 100.453 22.8287 100.742 22.6926C101.032 22.593 101.285 22.4074 101.468 22.1602C101.696 21.9458 101.857 21.6679 101.93 21.3617C102.059 21.0449 102.126 20.7059 102.127 20.3635V17.1692C102.132 16.8476 102.064 16.529 101.93 16.2376C101.857 15.9313 101.696 15.6534 101.468 15.439C101.268 15.2095 101.02 15.0277 100.742 14.9066C100.453 14.7706 100.137 14.7023 99.8184 14.707ZM99.8184 12.7771C100.403 12.7624 100.985 12.8668 101.529 13.0841C102.073 13.3013 102.569 13.6269 102.985 14.0415C103.405 14.4478 103.722 14.9499 103.909 15.5055C104.102 16.0838 104.191 16.6923 104.173 17.3023V20.2969C104.21 20.9356 104.097 21.574 103.843 22.1602C103.677 22.7104 103.383 23.2125 102.985 23.6242C102.592 24.0113 102.119 24.3066 101.6 24.4894C101.031 24.7084 100.427 24.8212 99.8184 24.8221C99.1451 24.8203 98.4766 24.7079 97.8391 24.4894C97.3367 24.2504 96.8877 23.9108 96.5197 23.4912C96.1484 23.0595 95.8578 22.5634 95.662 22.0271C95.5051 21.4632 95.4165 20.8823 95.3981 20.2969V17.3023C95.4165 16.7169 95.5051 16.136 95.662 15.5721C95.8578 15.0358 96.1484 14.5397 96.5197 14.1081C96.8725 13.688 97.3271 13.3671 97.8391 13.1764C98.4635 12.9038 99.1381 12.7677 99.8184 12.7771ZM91.8355 14.707V24.689H89.7903V14.707H86.5576V12.8437H95.1342V14.707H91.8355Z" fill="#241F20"/>
</svg>
